/* XPM */
static const char * ModAssertWx_xpm[] = {
"16 16 4 1",
" 	c None",
".	c #FFFF00",
"+	c #FF0000",
"@	c #0000FF",
"................",
"................",
"................",
".++...++......@@",
".+++.+++...@@@@@",
".+++++++..@++@@@",
".++.+.++.@++++@@",
".++...++@++@@++@",
".++...++@++@@++@",
".++...++@++++++@",
".++...++@++@@++@",
"....@@@@@++@@++@",
"...@@@@@@++@@++@",
"..@@@@@@@@@@@@@@",
"..@@@@@@@@@@@@@@",
".@@@@@@@@@@@@@@@"};
