/* XPM */
static const char * ModAssertWx32x32_xpm[] = {
"32 32 3 1",
" 	c #FFFF00",
".	c #0000FF",
"+	c #FF0000",
"                              ..",
"                             ...",
"                            ....",
"                            ....",
"                           .....",
" +++++     +++++         .......",
" +++++     +++++         .......",
" ++++++    +++++       .........",
" ++++++   ++++++      ..........",
" ++++++   ++++++      ..........",
" +++++++ +++++++      ..........",
" +++++++ +++++++     ...........",
" ++++ +++++ ++++   ...++++......",
" ++++ +++++ ++++   ...++++......",
" ++++ +++++ ++++   ..++++++.....",
" ++++  +++  ++++  ...++++++.....",
" ++++  +++  ++++.....++++++.....",
" ++++       ++++....++++++++....",
" ++++       ++++....++++++++....",
" ++++       ++++....+++..+++....",
" ++++      .++++...++++..++++...",
"           ........++++..++++...",
"        ...........++++++++++...",
"       ...........++++++++++++..",
"     .............++++++++++++..",
"     .............++++....++++..",
"    .............+++++....+++++.",
"   ..............++++......++++.",
"  ..............................",
" ...............................",
"................................",
"................................"};
