/* XPM */
static char * ModAssertS_xpm[] = {
"16 16 3 1",
" 	c None",
".	c #FFFFFF",
"+	c #00FF00",
"................",
"................",
"................",
".++...++...++...",
".+++.+++..++++..",
".+++++++.++..++.",
".++.+.++.++..++.",
".++...++.++++++.",
".++...++.++..++.",
".++...++.++..++.",
".++...++.++..++.",
"................",
"................",
"................",
"................",
"................"};
